<?xml version="1.0" encoding="UTF-8" standalone="no"?>
<!-- Created with Inkscape (http://www.inkscape.org/) -->

<svg
   width="115mm"
   height="115mm"
   viewBox="0 0 115.00001 115"
   version="1.1"
   id="svg111376"
   inkscape:version="1.1.1 (3bf5ae0d25, 2021-09-20)"
   sodipodi:docname="LightBurn_Logo_White.svg"
   xmlns:inkscape="http://www.inkscape.org/namespaces/inkscape"
   xmlns:sodipodi="http://sodipodi.sourceforge.net/DTD/sodipodi-0.dtd"
   xmlns="http://www.w3.org/2000/svg"
   xmlns:svg="http://www.w3.org/2000/svg">
  <sodipodi:namedview
     id="namedview111378"
     pagecolor="#505050"
     bordercolor="#eeeeee"
     borderopacity="1"
     inkscape:pageshadow="0"
     inkscape:pageopacity="0"
     inkscape:pagecheckerboard="0"
     inkscape:document-units="mm"
     showgrid="false"
     fit-margin-top="5"
     fit-margin-left="5"
     fit-margin-right="5"
     fit-margin-bottom="5"
     inkscape:zoom="1.5306269"
     inkscape:cx="207.43135"
     inkscape:cy="217.88458"
     inkscape:window-width="1920"
     inkscape:window-height="1001"
     inkscape:window-x="320"
     inkscape:window-y="1791"
     inkscape:window-maximized="1"
     inkscape:current-layer="layer1" />
  <defs
     id="defs111373" />
  <g
     inkscape:label="Layer 1"
     inkscape:groupmode="layer"
     id="layer1"
     transform="translate(-88.83395,-75.463456)">
    <path
       d="m 144.31538,132.85707 c 2.78892,-8.50727 9.54997,-4.7899 9.54997,-4.7899 -2.54673,4.98709 -9.54997,4.7899 -9.54997,4.7899 m 46.73853,-0.54858 c 0,0 -3.02251,-5.81186 -9.52163,-9.3764 -4.94862,-2.71307 -9.44053,-3.48068 -11.63581,-3.70384 -0.76835,-3.25785 4.28495,-6.08771 4.28495,-6.08771 0,0 -3.49345,0.82962 -4.90352,1.84256 -1.17759,0.85007 -2.73114,2.22965 -3.57498,3.4384 -0.87464,1.26418 -0.60887,0.69204 -2.0352,0.75164 -0.59952,0.0194 -1.00603,0.0211 -1.48258,0.0298 0.0383,-0.35763 0.43178,-1.08259 0.63525,-1.36676 l 1.21529,-1.79059 c 0.15769,-0.20862 0.31886,-0.38257 0.49383,-0.59328 l 1.06602,-1.10512 c 1.27281,-1.15918 2.59388,-2.37625 4.06633,-3.28835 0.13335,-0.0835 0.18466,-0.10568 0.29937,-0.20446 0.13029,-0.11816 -4.87203,1.82421 -6.46056,2.81844 -2.44283,1.5137 -4.6461,3.32369 -6.49733,5.50864 -0.5094,0.61234 -0.7458,0.54545 -1.71958,0.72289 -6.20135,-1.8904 -12.45019,-0.2405 -12.97312,5.44695 -0.13931,1.56846 0.53748,0.65774 -0.51706,2.27471 l -2.82534,4.87274 c -0.23845,0.48135 -1.59763,2.24974 -1.98126,2.69124 -0.64938,0.7624 -2.32666,2.37382 -3.23041,2.81496 -0.41272,-0.14485 -0.86536,-0.22871 -1.34353,-0.22871 -1.66273,0 -2.98235,0.99042 -3.27449,2.27228 -0.47442,0.37704 -1.04211,0.62239 -1.75004,0.60299 -0.41383,-0.69967 -0.9714,-1.16682 -1.63644,-1.2545 -1.65711,-0.21797 -3.30666,1.93303 -3.68475,4.80482 -0.34652,2.63512 0.50455,4.93824 1.92611,5.47226 0.34482,0.21312 0.73883,0.38362 1.22533,0.47026 0.40966,0.42243 1.75839,2.33707 1.94969,2.10732 0,0 -1.57815,-1.91153 1.05309,-2.52317 0.36319,-0.0864 2.34232,-0.47927 2.54332,-0.60404 0.19028,1.11414 2.46666,2.88255 3.5583,3.03018 -0.95506,-1.32656 -1.76843,-2.98165 -0.62445,-4.00533 0.4574,-0.41309 2.27433,-1.2337 2.92754,-1.62911 1.57398,-0.95715 2.90227,-3.05858 4.56399,-4.41287 2.27229,-1.83426 6.95098,-4.22435 9.63353,-4.08054 0.88817,0.0426 2.47431,0.76378 2.99273,1.40592 l -3.12199,1.82316 c -0.30083,0.18679 -0.48898,0.25713 -0.79184,0.42625 -0.30253,0.16911 -0.50183,0.31085 -0.80299,0.49764 -1.75591,1.09749 -3.2744,2.47397 -4.77188,3.88371 l -1.82416,1.89939 c -2.23178,2.6618 -3.35176,5.71795 -6.58881,7.05665 -1.02126,0.42936 -4.53454,0.44842 -5.93729,0.57664 0.33962,0.42868 1.80859,1.21394 2.44444,1.40316 1.74383,0.51253 4.10513,0.98175 5.93355,0.67298 1.65439,-0.27515 3.39576,-0.74263 4.8814,-2.01584 1.4853,-1.27354 2.51763,-3.05546 3.0974,-3.66087 0.75653,-0.78943 1.57747,-1.92851 2.33884,-2.49303 l 2.50342,-1.62529 c 1.5584,-0.93808 3.99493,-1.9389 6.33964,-1.62285 3.79393,0.50144 4.76566,2.0394 8.12227,-0.88438 0.60539,-0.53264 8.90127,-12.51157 2.22821,-0.57492 l -0.96058,1.74034 c 0,0 1.00152,0.44843 1.71957,2.1153 0.82648,1.88692 0.20441,3.97691 -0.74963,5.53151 l -0.87566,1.44128 c -5.45632,8.20473 -13.80317,17.22315 -33.22171,15.31301 -12.2475,-1.20493 -20.82854,-15.43951 -22.71754,-20.57146 -1.89769,-5.14789 -2.85862,-10.7896 -2.85862,-16.76573 0,-5.97647 0.96093,-11.61714 2.85862,-16.76504 1.89003,-5.13333 4.62593,-9.64843 8.12985,-13.42263 3.49838,-3.76761 7.80205,-6.77214 12.79195,-8.929359 4.9916,-2.15896 10.68041,-3.25335 16.91061,-3.25335 2.60009,0 5.28613,0.295959 7.98323,0.88057 2.71208,0.58947 5.34476,1.41286 7.82154,2.44833 2.47082,1.03477 4.79162,2.30693 6.89406,3.78286 1.67898,1.18032 3.1636,2.453519 4.42672,3.796709 l -4.08293,4.25728 c 0.78461,0.0977 7.71304,0.20168 12.44816,1.56707 2.88984,0.83309 5.58312,1.92227 7.39,2.99066 l 4.47072,2.63996 -2.7411,-4.40941 c -1.08781,-1.7497 -2.18566,-4.1197 -3.09357,-6.6751 -1.68869,-4.760109 -2.46495,-12.806829 -2.46495,-12.806829 l -3.51643,3.66469 c -9.12967,-8.67847 -21.07846,-13.07679 -35.53545,-13.07679 -7.68359,0 -14.83728,1.35048 -21.2604,4.01401 -6.42976,2.66699 -12.00846,6.41277 -16.58172,11.1306 -4.57266,4.714009 -8.19367,10.384489 -10.76295,16.853059 -2.56512,6.46232 -3.86567,13.63368 -3.86567,21.31271 0,7.68112 1.30055,14.87327 3.86465,21.37787 2.56749,6.515 6.18884,12.20904 10.76397,16.92792 4.57607,4.72163 10.15783,8.44454 16.58929,11.06337 6.32586,2.66941 14.743,2.66941 21.00188,2.66941 6.43461,0 12.75136,-0.67749 18.95416,-2.02935 2.29791,-0.5011 4.55879,-1.17409 6.79747,-1.94654 l 0.11395,-0.005 0.31886,-0.13896 c 3.03885,-1.07324 7.26764,-3.38053 8.78519,-4.4801 1.51747,-1.09959 4.65717,-3.80574 5.60533,-6.96863 0.40754,-1.34563 0.67611,-2.66076 0.92425,-4.20392 0.22245,-1.43468 0.438,-3.32819 0.30355,-4.80099 1.3054,0.16322 2.30173,3.51982 2.43653,4.99263 0.14415,1.77257 0.18364,3.35974 1.10474,0.28799 3.49149,-11.66359 -0.65423,-28.07757 -9.43628,-37.7572 4.25031,0.35 6.50354,3.72082 6.50354,3.72082"
       style="fill:#f2f2f2;fill-opacity:1;fill-rule:nonzero;stroke:none;stroke-width:0.346543"
       id="path1116-0-6-5"
       inkscape:export-filename="C:\Users\Kimberly\Projects\LightBurn\Brand Assets\Official Logo\LightBurn_Logo_White.png"
       inkscape:export-xdpi="0.22086957"
       inkscape:export-ydpi="0.22086957" />
  </g>
</svg>
