<?xml version="1.0" encoding="UTF-8" standalone="no"?>
<!-- Created with Inkscape (http://www.inkscape.org/) -->

<svg
   version="1.1"
   id="svg2"
   xml:space="preserve"
   width="505.52332"
   height="505.53732"
   viewBox="0 0 505.52332 505.53732"
   sodipodi:docname="LightBurn_Logo_Icon.svg"
   inkscape:version="1.1.1 (3bf5ae0d25, 2021-09-20)"
   inkscape:export-filename="C:\Users\Kimberly\Downloads\LightBurn_Logo_Icon.png"
   inkscape:export-xdpi="388.92001"
   inkscape:export-ydpi="388.92001"
   xmlns:inkscape="http://www.inkscape.org/namespaces/inkscape"
   xmlns:sodipodi="http://sodipodi.sourceforge.net/DTD/sodipodi-0.dtd"
   xmlns="http://www.w3.org/2000/svg"
   xmlns:svg="http://www.w3.org/2000/svg"><defs
     id="defs6"><linearGradient
       x1="0"
       y1="0"
       x2="1"
       y2="0"
       gradientUnits="userSpaceOnUse"
       gradientTransform="matrix(374.91702,-374.91702,-374.91702,-374.91702,109.11819,522.66919)"
       spreadMethod="pad"
       id="linearGradient34"><stop
         style="stop-opacity:1;stop-color:#231f20"
         offset="0"
         id="stop22" /><stop
         style="stop-opacity:1;stop-color:#231f20"
         offset="0.0167668"
         id="stop24" /><stop
         style="stop-opacity:1;stop-color:#7e1323"
         offset="0.371074"
         id="stop26" /><stop
         style="stop-opacity:1;stop-color:#7e1323"
         offset="0.68177827"
         id="stop28" /><stop
         style="stop-opacity:1;stop-color:#ec1c24"
         offset="0.834415"
         id="stop30" /><stop
         style="stop-opacity:1;stop-color:#ec1c24"
         offset="1"
         id="stop32" /></linearGradient><clipPath
       clipPathUnits="userSpaceOnUse"
       id="clipPath44"><path
         d="M 0,576 H 576 V 0 H 0 Z"
         id="path42" /></clipPath></defs><sodipodi:namedview
     id="namedview4"
     pagecolor="#505050"
     bordercolor="#eeeeee"
     borderopacity="1"
     inkscape:pageshadow="0"
     inkscape:pageopacity="0"
     inkscape:pagecheckerboard="0"
     showgrid="false"
     fit-margin-top="0"
     fit-margin-left="0"
     fit-margin-right="0"
     fit-margin-bottom="0"
     inkscape:zoom="1.0572917"
     inkscape:cx="156.53202"
     inkscape:cy="272.867"
     inkscape:window-width="3200"
     inkscape:window-height="1721"
     inkscape:window-x="-9"
     inkscape:window-y="-9"
     inkscape:window-maximized="1"
     inkscape:current-layer="g8" /><g
     id="g8"
     inkscape:groupmode="layer"
     inkscape:label="LightBurn_Icon"
     transform="matrix(1.3333333,0,0,-1.3333333,-142.674,699.71598)"><g
       id="g10"><g
         id="g12"><g
           id="g18"><g
             id="g20"><path
               d="m 114.206,524.787 c -3.96,0 -7.2,-3.24 -7.2,-7.2 v 0 -364.753 c 0,-3.96 3.24,-7.2 7.2,-7.2 v 0 h 364.742 c 3.96,0 7.2,3.24 7.2,7.2 v 0 364.753 c 0,3.96 -3.24,7.2 -7.2,7.2 v 0 z"
               style="fill:url(#linearGradient34);stroke:none"
               id="path36" /></g></g></g></g><g
       id="g38"><g
         id="g40"
         clip-path="url(#clipPath44)"><g
           id="g46"
           transform="translate(393.6455,408.6401)"><path
             d="m 0,0 c -6.35,17.891 -8.892,33.86 -6.928,40.426 l -0.163,0.562 -10.993,-11.465 c -34.377,34.519 -79.483,51.808 -135.345,51.808 -28.751,0 -55.101,-4.977 -79.052,-14.909 -20.621,-8.553 -38.669,-19.938 -54.159,-34.141 v -52.364 c 4.907,7.717 10.445,14.906 16.625,21.56 13.841,14.907 30.613,26.615 50.308,35.134 19.696,8.517 41.79,12.774 66.278,12.774 10.289,0 20.762,-1.153 31.408,-3.46 10.646,-2.313 20.843,-5.502 30.608,-9.579 9.759,-4.084 18.807,-9.049 27.151,-14.904 8.176,-5.747 15.044,-11.934 20.665,-18.526 L -55.358,-9.351 c 7.573,1.311 22.113,-0.451 38.335,-5.128 C -5.04,-17.933 5.285,-22.247 12.223,-26.343 8.107,-19.729 3.746,-10.555 0,0"
             style="fill:#ffffff;fill-opacity:1;fill-rule:nonzero;stroke:none"
             id="path48" /></g><g
           id="g50"
           transform="translate(260.0918,312.9917)"><path
             d="M 0,0 C -9.692,-18.98 -36.344,-18.229 -36.344,-18.229 -25.73,14.146 0,0 0,0 m -113.679,-82.228 c 1.31,-0.81 2.811,-1.459 4.661,-1.789 1.56,-1.607 6.692,-8.894 7.419,-8.02 0,0 -6.005,7.275 4.009,9.603 1.383,0.328 8.915,1.824 9.679,2.299 0.724,-4.24 9.386,-10.97 13.542,-11.532 -3.635,5.048 -6.73,11.347 -2.376,15.243 1.74,1.573 8.654,4.694 11.14,6.199 5.991,3.643 11.045,11.641 17.37,16.794 8.646,6.98 26.451,16.076 36.66,15.529 3.379,-0.162 9.416,-2.907 11.388,-5.349 l -11.879,-6.941 c -1.146,-0.71 -1.862,-0.977 -3.014,-1.621 -1.152,-0.644 -1.91,-1.184 -3.056,-1.895 -6.682,-4.175 -12.461,-9.414 -18.16,-14.779 l -6.941,-7.227 c -8.494,-10.129 -12.758,-21.761 -25.075,-26.856 -3.887,-1.634 -17.256,-1.707 -22.595,-2.195 1.294,-1.631 6.882,-4.618 9.302,-5.339 6.637,-1.95 15.624,-3.735 22.581,-2.562 6.296,1.047 12.922,2.827 18.576,7.673 5.653,4.846 9.582,11.628 11.789,13.932 2.877,3.003 6.001,7.338 8.899,9.486 l 9.527,6.187 c 5.931,3.569 15.204,7.378 24.127,6.175 14.438,-1.91 18.135,-7.761 30.91,3.365 2.303,2.026 33.874,47.615 8.478,2.187 l -3.654,-6.621 c 0,0 3.81,-1.707 6.544,-8.051 3.145,-7.18 0.778,-15.133 -2.853,-21.05 l -3.333,-5.486 c -13.461,-20.24 -46.455,-48.394 -81.111,-62.488 h 162.281 c 1.414,2.397 2.6,4.911 3.38,7.515 1.551,5.121 2.573,10.125 3.517,15.998 0.846,5.46 1.667,12.667 1.155,18.27 4.968,-0.621 8.76,-13.394 9.272,-18.999 0.549,-6.745 0.699,-12.787 4.205,-1.095 13.288,44.386 -2.49,106.85 -35.911,143.688 16.175,-1.334 24.75,-14.161 24.75,-14.161 0,0 -11.502,22.119 -36.237,35.682 -18.831,10.326 -35.925,13.246 -44.279,14.096 -2.925,12.398 16.305,23.166 16.305,23.166 0,0 -13.293,-3.156 -18.66,-7.011 -4.481,-3.235 -10.392,-8.485 -13.605,-13.084 -3.327,-4.812 -2.316,-2.634 -7.744,-2.862 -2.282,-0.074 -3.828,-0.081 -5.642,-0.112 0.145,1.359 1.643,4.12 2.418,5.2 l 4.624,6.815 c 0.601,0.794 1.213,1.456 1.88,2.257 l 4.056,4.206 c 4.844,4.412 9.871,9.043 15.473,12.515 0.51,0.316 0.704,0.401 1.141,0.777 C 61.75,65.954 42.714,58.562 36.668,54.78 27.372,49.018 18.986,42.129 11.941,33.815 10.002,31.485 9.104,31.739 5.398,31.064 c -23.6,7.194 -47.381,0.915 -49.372,-20.729 -0.53,-5.969 2.046,-2.503 -1.966,-8.657 l -10.752,-18.542 c -0.909,-1.833 -6.08,-8.563 -7.54,-10.243 -2.472,-2.9 -8.855,-9.033 -12.294,-10.713 -1.571,0.552 -3.292,0.871 -5.112,0.871 -6.328,0 -11.35,-3.768 -12.462,-8.648 -1.806,-1.434 -3.964,-2.367 -6.66,-2.294 -1.575,2.663 -3.697,4.44 -6.227,4.774 -6.307,0.829 -12.585,-7.356 -14.023,-18.286 -1.32,-10.026 1.921,-18.793 7.331,-20.825"
             style="fill:#ffffff;fill-opacity:1;fill-rule:nonzero;stroke:none"
             id="path52" /></g></g></g></g></svg>
